<svg xmlns="http://www.w3.org/2000/svg" viewBox="0 0 64 64">
  <defs>
    <linearGradient id="gold" x1="0%" y1="0%" x2="100%" y2="100%">
      <stop offset="0%" style="stop-color:#d4af37"/>
      <stop offset="50%" style="stop-color:#f4e4bc"/>
      <stop offset="100%" style="stop-color:#c4956a"/>
    </linearGradient>
    <linearGradient id="steam" x1="0%" y1="100%" x2="0%" y2="0%">
      <stop offset="0%" style="stop-color:#7c9a6e;stop-opacity:0.8"/>
      <stop offset="100%" style="stop-color:#7c9a6e;stop-opacity:0"/>
    </linearGradient>
  </defs>
  <!-- Steam wisps -->
  <path d="M26 22 Q24 18 26 14 Q28 10 26 6" stroke="url(#steam)" stroke-width="2" fill="none" stroke-linecap="round"/>
  <path d="M32 20 Q30 15 32 10 Q34 5 32 2" stroke="url(#steam)" stroke-width="2" fill="none" stroke-linecap="round"/>
  <path d="M38 22 Q40 18 38 14 Q36 10 38 6" stroke="url(#steam)" stroke-width="2" fill="none" stroke-linecap="round"/>
  <!-- Cup body -->
  <path d="M16 28 L16 46 Q16 56 32 56 Q48 56 48 46 L48 28 Z" fill="url(#gold)" stroke="#b8860b" stroke-width="1"/>
  <!-- Cup handle -->
  <path d="M48 32 Q58 32 58 42 Q58 50 48 50" stroke="url(#gold)" stroke-width="4" fill="none" stroke-linecap="round"/>
  <!-- Tea surface -->
  <ellipse cx="32" cy="32" rx="14" ry="4" fill="#5a7a4c" opacity="0.6"/>
  <!-- Rim highlight -->
  <ellipse cx="32" cy="28" rx="16" ry="4" fill="none" stroke="#f4e4bc" stroke-width="1.5" opacity="0.7"/>
</svg>
